<?xml version="1.0" encoding="utf-8"?>
<!-- Generator: Adobe Illustrator 15.1.0, SVG Export Plug-In . SVG Version: 6.00 Build 0)  -->
<!DOCTYPE svg PUBLIC "-//W3C//DTD SVG 1.1//EN" "http://www.w3.org/Graphics/SVG/1.1/DTD/svg11.dtd">
<svg version="1.1" id="レイヤー_1" xmlns="http://www.w3.org/2000/svg" xmlns:xlink="http://www.w3.org/1999/xlink" x="0px"
	 y="0px" width="426px" height="211.5px" viewBox="0 0 426 211.5" style="enable-background:new 0 0 426 211.5;"
	 xml:space="preserve">
<rect y="157.5" style="fill:none;stroke:#000000;stroke-miterlimit:10;" width="356" height="54"/>
<polygon style="fill:none;stroke:#000000;stroke-miterlimit:10;" points="426,0.5 70,0.5 0,157.5 356,157.5 "/>
<polyline style="fill:none;stroke:#000000;stroke-miterlimit:10;" points="355.5,211.734 426,53.053 426,52.552 426,0 "/>
<rect x="22" y="168.5" style="fill:#3FA9F5;stroke:#000000;" width="54" height="32"/>
<rect x="86" y="168.5" style="fill:#3FA9F5;stroke:#000000;" width="54" height="32"/>
<rect x="151" y="168.5" style="fill:#3FA9F5;stroke:#000000;" width="54" height="32"/>
<rect x="215" y="168.5" style="fill:#3FA9F5;stroke:#000000;" width="54" height="32"/>
<rect x="280" y="168.5" style="fill:#3FA9F5;stroke:#000000;" width="54" height="32"/>
<g>
	<path style="fill:#737373;" d="M78.857,13.083c0,1.317-0.013,1.515,0.119,1.751c0.145,0.277,0.5,0.291,1.066,0.343
		c0.092,0.013,0.105,0.04,0.105,0.171c0,0.133-0.014,0.172-0.119,0.172c-0.618-0.026-1.316-0.039-1.922-0.039
		c-0.606,0-1.33,0.013-1.884,0.039c-0.079,0-0.105-0.014-0.105-0.172c0-0.145,0.04-0.171,0.118-0.171
		c0.501-0.039,0.765-0.052,0.923-0.343c0.145-0.289,0.145-0.869,0.145-1.751V8.315c0-1.265,0-1.423-0.132-1.712
		c-0.145-0.264-0.54-0.276-1.054-0.329C76.026,6.261,76,6.248,76,6.089c0-0.145,0.026-0.172,0.118-0.172
		c0.593,0.027,1.344,0.04,1.963,0.04c0.5,0,1.316-0.053,2.159-0.053c2.766,0,3.701,1.04,3.701,2.542
		c0,1.449-0.869,2.752-4.109,2.752c-0.303,0-0.658-0.013-0.975-0.053V13.083z M78.857,10.66c0.264,0.053,0.54,0.078,0.843,0.078
		c1.896,0,2.556-0.987,2.556-2.225c0-1.423-0.843-2.16-2.278-2.16c-0.304,0-0.777,0.026-0.948,0.276
		c-0.185,0.276-0.172,0.962-0.172,1.686V10.66z"/>
	<path style="fill:#737373;" d="M86.998,10.554c0.461-0.777,1.159-1.225,1.988-1.225c0.475,0,1.976,0.171,1.976,1.869
		c0,0.725-0.026,1.146-0.026,1.488v0.896c0,0.776-0.013,1.172,0.093,1.383c0.078,0.21,0.329,0.21,0.724,0.25
		c0.079,0.013,0.105,0.039,0.105,0.158c0,0.131-0.026,0.145-0.118,0.145c-0.501-0.014-1.027-0.039-1.462-0.039
		c-0.487,0-0.988,0.025-1.475,0.039c-0.105,0-0.132-0.014-0.132-0.145c0-0.133,0.026-0.146,0.118-0.158
		c0.382-0.04,0.593-0.04,0.685-0.25c0.119-0.225,0.093-0.633,0.093-1.383v-1.791c0-0.396,0.026-0.699-0.119-1.12
		c-0.171-0.396-0.487-0.671-1.001-0.671c-0.487,0-0.922,0.315-1.172,0.75c-0.211,0.382-0.276,0.619-0.276,1.054v1.778
		c0,0.776-0.014,1.172,0.079,1.383c0.079,0.184,0.29,0.21,0.724,0.25c0.105,0.013,0.133,0.025,0.133,0.145
		c0,0.132-0.027,0.158-0.133,0.158c-0.486-0.014-0.961-0.039-1.396-0.039c-0.474,0-1.054,0.025-1.567,0.039
		c-0.079,0-0.105-0.026-0.105-0.158c0-0.105,0.026-0.132,0.105-0.145c0.408-0.04,0.606-0.04,0.698-0.25
		c0.105-0.225,0.105-0.633,0.105-1.383V7.63c0-0.475-0.014-0.83-0.053-1.066c-0.04-0.25-0.211-0.33-0.435-0.316l-0.369,0.026
		c-0.132,0.013-0.145,0-0.158-0.158c-0.013-0.146,0-0.158,0.132-0.185c0.554-0.105,1.541-0.369,2.173-0.579
		c0.053,0,0.132,0.065,0.132,0.105c-0.039,0.975-0.065,1.936-0.065,3.214V10.554z"/>
	<path style="fill:#737373;" d="M96.271,13.886c-0.315,0.803-0.579,1.488-0.855,2.08c-0.751,1.621-1.502,2.713-2.739,2.713
		c-0.448,0-0.566-0.131-0.566-0.355c0-0.434,0.382-0.961,0.816-0.961c0.303,0,0.421,0.172,0.658,0.172
		c0.158,0,0.343-0.054,0.514-0.264c0.276-0.33,0.487-0.619,0.948-1.581c-0.264-0.593-0.461-1.04-0.751-1.765l-1.001-2.502
		c-0.329-0.764-0.447-1.066-0.632-1.291c-0.145-0.184-0.303-0.25-0.698-0.276c-0.065,0-0.104-0.013-0.104-0.171
		c0-0.132,0.025-0.158,0.104-0.158c0.501,0.026,1.093,0.039,1.528,0.039c0.461,0,1.08-0.013,1.58-0.039
		c0.079,0,0.118,0.026,0.118,0.158c0,0.158-0.039,0.171-0.105,0.171c-0.355,0.026-0.632,0.079-0.711,0.237
		c-0.092,0.184,0.053,0.605,0.355,1.33l0.686,1.765c0.171,0.435,0.224,0.618,0.303,0.882c0.104-0.236,0.171-0.447,0.355-0.922
		l0.646-1.738c0.25-0.685,0.263-1.066,0.132-1.277c-0.119-0.197-0.304-0.25-0.646-0.276c-0.093-0.013-0.119-0.04-0.119-0.171
		c0-0.132,0.026-0.158,0.132-0.158c0.355,0.014,0.856,0.039,1.212,0.039c0.382,0,0.75-0.013,1.119-0.039
		c0.092,0,0.118,0.014,0.118,0.158s-0.026,0.158-0.118,0.171c-0.211,0.026-0.395,0.079-0.579,0.263
		c-0.237,0.198-0.448,0.554-0.738,1.291L96.271,13.886z"/>
	<path style="fill:#737373;" d="M100.775,12.78c-0.961-0.448-1.527-0.765-1.527-1.896c0-0.737,0.619-1.581,2.081-1.581
		c0.329,0,0.711,0.08,0.948,0.133c0.263,0.053,0.526,0.053,0.869,0.013c0.026,0.461,0.065,1.093,0.118,1.528
		c0,0.078-0.026,0.105-0.145,0.117c-0.132,0.027-0.158-0.025-0.197-0.092c-0.356-0.725-0.909-1.33-1.541-1.33
		c-0.737,0-1.027,0.396-1.027,0.936c0,0.369,0.29,0.645,0.987,0.935l0.461,0.198c1.146,0.5,1.805,0.895,1.805,2.066
		c0,0.91-0.685,1.91-2.318,1.91c-0.737,0-1.33-0.145-1.87-0.369c-0.118-0.408-0.236-1.014-0.289-1.436
		c0-0.092,0.013-0.105,0.132-0.118c0.131-0.013,0.145-0.013,0.184,0.079c0.435,0.856,1.159,1.462,1.844,1.462
		c0.777,0,1.146-0.487,1.146-1.172c0-0.566-0.447-0.804-1.211-1.173L100.775,12.78z"/>
	<path style="fill:#737373;" d="M105.465,11.673c0-0.5-0.013-0.869-0.065-1.119c-0.066-0.211-0.198-0.29-0.487-0.264l-0.343,0.026
		c-0.132,0.013-0.158,0.013-0.171-0.146c-0.014-0.157,0-0.17,0.145-0.197c0.514-0.118,1.515-0.395,2.134-0.605
		c0.092,0,0.157,0.053,0.157,0.132c-0.039,0.962-0.052,1.698-0.052,2.331v1.725c0,0.791,0,1.199,0.092,1.41
		c0.105,0.197,0.329,0.197,0.751,0.223c0.079,0.014,0.092,0.053,0.092,0.172c0,0.132-0.013,0.158-0.092,0.158
		c-0.475-0.014-1.015-0.039-1.462-0.039c-0.435,0-1.041,0.025-1.488,0.039c-0.105,0-0.132-0.026-0.132-0.158
		c0-0.119,0.026-0.172,0.119-0.172c0.382-0.025,0.592-0.039,0.697-0.223c0.132-0.225,0.105-0.646,0.105-1.41V11.673z M106.914,6.577
		c0,0.461-0.448,0.896-0.87,0.896c-0.46,0-0.908-0.435-0.908-0.896s0.448-0.882,0.908-0.882
		C106.466,5.695,106.914,6.116,106.914,6.577z"/>
	<path style="fill:#737373;" d="M113.117,9.619c0.264,0.105,0.526,0.303,0.526,0.619c0,0.475-0.145,0.869-0.579,0.869
		c-0.396,0-0.632-0.5-0.79-0.816c-0.158-0.289-0.355-0.553-0.698-0.553c-1.014,0-1.527,1.146-1.527,2.766
		c0,1.711,0.961,2.581,1.83,2.581c0.777,0,1.199-0.276,1.673-0.922c0.065-0.105,0.132-0.093,0.237-0.013
		c0.105,0.064,0.118,0.117,0.079,0.197c-0.54,0.922-1.317,1.383-2.384,1.383c-1.778,0-2.99-1.317-2.99-3.161
		c0-1.817,1.317-3.253,3.016-3.253C112.287,9.316,112.762,9.46,113.117,9.619z"/>
	<path style="fill:#737373;" d="M119.334,14.031c-0.014,0.843,0.171,1.158,0.474,1.158c0.158,0,0.237-0.013,0.382-0.092
		c0.053-0.025,0.119-0.025,0.172,0.066s0.053,0.131-0.039,0.197c-0.225,0.172-0.606,0.303-1.12,0.303
		c-0.566,0-0.948-0.276-1.119-0.711c-0.475,0.475-0.936,0.777-1.844,0.777c-1.291,0-1.686-0.804-1.686-1.396
		c0-0.579,0.171-0.869,0.447-1.172c0.396-0.355,0.869-0.475,1.686-0.725c0.58-0.171,0.83-0.316,1.027-0.475
		c0.171-0.131,0.304-0.328,0.304-0.513v-0.368c0-0.988-0.251-1.396-0.791-1.396c-0.211,0-0.461,0.039-0.685,0.264
		c-0.185,0.158-0.237,0.408-0.237,0.736c0,0.355-0.329,0.633-1.014,0.633c-0.408,0-0.514-0.158-0.514-0.422
		c0-0.619,1.014-1.58,2.634-1.58c1.936,0,1.962,0.936,1.949,1.963L119.334,14.031z M118.018,12.173
		c-0.133,0.197-0.316,0.303-1.054,0.58c-0.698,0.276-0.962,0.711-0.962,1.383c0,0.697,0.475,1.08,0.83,1.08
		c0.685,0,1.172-0.527,1.172-1.146L118.018,12.173z"/>
	<path style="fill:#737373;" d="M121.561,7.617c0-0.474-0.039-0.855-0.092-1.08c-0.054-0.236-0.225-0.315-0.435-0.303l-0.356,0.027
		c-0.118,0.013-0.145,0-0.157-0.146c-0.014-0.158,0.013-0.171,0.131-0.198c0.54-0.104,1.528-0.368,2.173-0.578
		c0.093,0,0.158,0.025,0.158,0.092c-0.026,0.988-0.065,1.949-0.065,3.24v4.872c0,0.804-0.014,1.212,0.092,1.409
		c0.105,0.211,0.316,0.224,0.737,0.264c0.08,0.013,0.093,0.039,0.093,0.158c0,0.131-0.026,0.145-0.105,0.145
		c-0.487-0.026-1.001-0.039-1.436-0.039c-0.461,0-1.014,0.013-1.501,0.039c-0.119,0-0.146-0.026-0.146-0.145
		c0-0.119,0.026-0.146,0.132-0.158c0.408-0.04,0.566-0.053,0.672-0.264c0.105-0.224,0.105-0.633,0.105-1.409V7.617z"/>
	<path style="fill:#737373;" d="M132.374,12.49h-3.147v-1.211h3.147V12.49z"/>
	<path style="fill:#737373;" d="M140.646,10.871c-1.567-0.791-2.094-1.449-2.094-2.793c0-1.343,1.185-2.37,2.95-2.37
		c0.579,0,0.961,0.093,1.33,0.185c0.408,0.105,0.869,0.105,1.304,0.039c0,0.672,0.092,1.527,0.145,2.227
		c0,0.065,0,0.105-0.132,0.131c-0.145,0.026-0.171-0.013-0.197-0.078c-0.514-1.213-1.33-2.082-2.384-2.082
		c-0.896,0-1.58,0.646-1.58,1.66c0,0.592,0.355,1.146,1.462,1.686l0.711,0.342c1.87,0.909,2.528,1.502,2.528,3.068
		c0,1.779-1.304,2.846-3.517,2.846c-0.921,0-1.79-0.197-2.528-0.461c-0.197-0.725-0.368-1.555-0.461-2.199
		c-0.013-0.093-0.013-0.186,0.145-0.211c0.146-0.027,0.198,0.014,0.225,0.078c0.593,1.33,1.62,2.371,2.766,2.371
		c1.119,0,1.909-0.79,1.909-1.896c0-1.001-0.593-1.514-1.923-2.199L140.646,10.871z"/>
	<path style="fill:#737373;" d="M148.417,10.871c-1.567-0.791-2.094-1.449-2.094-2.793c0-1.343,1.185-2.37,2.949-2.37
		c0.58,0,0.962,0.093,1.33,0.185c0.409,0.105,0.869,0.105,1.305,0.039c0,0.672,0.092,1.527,0.145,2.227c0,0.065,0,0.105-0.132,0.131
		c-0.145,0.026-0.171-0.013-0.197-0.078c-0.514-1.213-1.33-2.082-2.384-2.082c-0.896,0-1.581,0.646-1.581,1.66
		c0,0.592,0.356,1.146,1.462,1.686l0.712,0.342c1.87,0.909,2.528,1.502,2.528,3.068c0,1.779-1.304,2.846-3.517,2.846
		c-0.922,0-1.791-0.197-2.528-0.461c-0.197-0.725-0.368-1.555-0.461-2.199c-0.013-0.093-0.013-0.186,0.145-0.211
		c0.146-0.027,0.198,0.014,0.225,0.078c0.592,1.33,1.619,2.371,2.766,2.371c1.119,0,1.909-0.79,1.909-1.896
		c0-1.001-0.593-1.514-1.923-2.199L148.417,10.871z"/>
	<path style="fill:#737373;" d="M156.478,13.095c0,1.317-0.026,1.527,0.105,1.778c0.158,0.264,0.501,0.276,1.054,0.329
		c0.092,0.014,0.119,0.026,0.119,0.158c0,0.145-0.027,0.158-0.133,0.158c-0.618-0.014-1.329-0.039-1.936-0.039
		c-0.566,0-1.265,0.013-1.856,0.039c-0.079,0-0.093-0.014-0.093-0.145c0-0.133,0.014-0.158,0.093-0.172
		c0.54-0.053,0.79-0.053,0.935-0.329c0.185-0.303,0.172-0.882,0.172-1.778v-4.78c0-1.265-0.014-1.435-0.172-1.726
		c-0.118-0.25-0.421-0.263-0.975-0.315c-0.079-0.013-0.105-0.026-0.105-0.171c0-0.158,0.026-0.186,0.105-0.186
		c0.606,0.014,1.317,0.053,1.896,0.053c0.606,0,1.277-0.039,1.844-0.053c0.119,0,0.158,0.027,0.158,0.186
		c0,0.145-0.039,0.158-0.132,0.171c-0.5,0.053-0.79,0.053-0.948,0.315c-0.145,0.303-0.132,0.896-0.132,1.726v1.87
		c0.843,0.039,1.58,0.039,2.357,0.039c0.764,0,1.462,0,2.292-0.039v-1.87c0-1.265,0-1.448-0.132-1.726
		c-0.132-0.263-0.461-0.263-1.014-0.315c-0.093-0.013-0.105-0.026-0.105-0.171c0-0.158,0.026-0.186,0.118-0.186
		c0.619,0.014,1.33,0.053,1.936,0.053c0.566,0,1.238-0.039,1.817-0.053c0.132,0,0.158,0.027,0.158,0.172
		c0,0.158-0.026,0.172-0.145,0.185c-0.514,0.053-0.764,0.053-0.909,0.315c-0.184,0.303-0.184,0.922-0.184,1.726v4.78
		c0,1.317,0.013,1.502,0.171,1.778c0.158,0.264,0.461,0.276,1.027,0.329c0.079,0.014,0.092,0.039,0.092,0.172
		c0,0.131-0.026,0.145-0.118,0.145c-0.646-0.014-1.33-0.039-1.91-0.039c-0.605,0-1.29,0.025-1.87,0.039
		c-0.104,0-0.118-0.014-0.118-0.145c0-0.133,0.026-0.158,0.118-0.172c0.527-0.053,0.765-0.053,0.909-0.329
		c0.158-0.303,0.158-0.882,0.158-1.778v-2.317c-0.83-0.053-1.528-0.053-2.292-0.053c-0.777,0-1.515,0-2.357,0.053V13.095z"/>
</g>
<text transform="matrix(1 0 0 1 34.4746 149.5498)" style="font-family:'KozGoPro-Regular-83pv-RKSJ-H'; font-size:12;">port1</text>
<text transform="matrix(1 0 0 1 295.5361 149.5498)" style="font-family:'KozGoPro-Regular-83pv-RKSJ-H'; font-size:12;">port5</text>
<text transform="matrix(1 0 0 1 230.2705 149.5498)" style="font-family:'KozGoPro-Regular-83pv-RKSJ-H'; font-size:12;">port4</text>
<text transform="matrix(1 0 0 1 165.0054 149.5498)" style="font-family:'KozGoPro-Regular-83pv-RKSJ-H'; font-size:12;">port3</text>
<text transform="matrix(1 0 0 1 99.7397 149.5498)" style="font-family:'KozGoPro-Regular-83pv-RKSJ-H'; font-size:12;">port2</text>
</svg>
